<?xml version="1.0" standalone="no"?>
<!DOCTYPE svg PUBLIC "-//W3C//DTD SVG 20010904//EN"
 "http://www.w3.org/TR/2001/REC-SVG-20010904/DTD/svg10.dtd">
<svg version="1.0" xmlns="http://www.w3.org/2000/svg"
 width="536.000000pt" height="536.000000pt" viewBox="0 0 536.000000 536.000000"
 preserveAspectRatio="xMidYMid meet">

<g transform="translate(0.000000,536.000000) scale(0.100000,-0.100000)"
fill="#000000" stroke="none">
<path d="M540 3011 l0 -80 508 -3 c465 -3 510 -4 535 -21 48 -31 48 -103 0
-134 -25 -17 -70 -18 -535 -21 l-509 -3 3 -77 3 -77 512 -5 511 -5 26 -24 c42
-40 31 -97 -24 -126 -25 -13 -103 -15 -530 -15 l-500 0 0 -80 0 -81 523 3
c577 4 570 3 650 69 93 76 111 214 41 306 l-24 32 32 52 c66 106 35 243 -70
310 -25 16 -62 34 -82 40 -23 8 -213 13 -552 16 l-518 5 0 -81z"/>
<path d="M1992 2893 c3 -179 6 -202 25 -239 38 -71 64 -78 311 -82 l213 -4 -3
79 -3 78 -157 5 c-211 7 -202 -3 -206 205 l-4 155 -90 0 -90 0 4 -197z"/>
<path d="M3198 2934 l-3 -156 -28 -24 -28 -24 -260 0 -259 0 0 -235 0 -235
105 0 105 0 0 155 0 155 183 0 c254 1 295 12 342 91 18 30 20 56 24 232 l3
197 -90 0 -90 0 -4 -156z"/>
<path d="M3570 3013 l0 -81 428 -4 c477 -5 493 -7 572 -76 126 -107 111 -298
-29 -380 -80 -47 -133 -52 -568 -52 l-403 0 0 -81 0 -81 443 5 c372 4 451 7
501 21 128 36 231 117 283 223 26 53 28 67 28 168 0 101 -2 114 -28 164 -61
114 -167 195 -298 225 -48 11 -171 17 -496 22 l-433 7 0 -80z"/>
</g>
</svg>
